<svg width="35" height="24" viewBox="0 0 35 24" fill="none" xmlns="http://www.w3.org/2000/svg">
<path d="M33.0975 0.913428V22.8357H8.40353V0.913428H33.0975ZM33.0975 0H8.40353C8.16096 0 7.92833 0.0962359 7.75682 0.267537C7.5853 0.438838 7.48894 0.671172 7.48894 0.913428V22.8357C7.48894 23.078 7.5853 23.3103 7.75682 23.4816C7.92833 23.6529 8.16096 23.7491 8.40353 23.7491H33.0975C33.3401 23.7491 33.5727 23.6529 33.7442 23.4816C33.9157 23.3103 34.0121 23.078 34.0121 22.8357V0.913428C34.0121 0.671172 33.9157 0.438838 33.7442 0.267537C33.5727 0.0962359 33.3401 0 33.0975 0Z" fill="#4D4D4D"/>
<path d="M8.40353 9.13428H33.0975V10.0477H8.40353V9.13428ZM8.40353 13.7014H33.0975V14.6148H8.40353V13.7014ZM8.40353 18.2686H33.0975V19.182H8.40353V18.2686ZM8.40353 4.56714H33.0975V5.48057H8.40353V4.56714Z" fill="#B3B3B3"/>
<path d="M14.8057 0.913452V22.8357H13.8911V0.913452H14.8057ZM21.2078 0.913452V22.8357H20.2932V0.913452H21.2078ZM27.61 0.913452V22.8357H26.6954V0.913452H27.61Z" fill="#B3B3B3"/>
<path d="M27.4998 5.0238L33.0974 5.0238C33.4022 5.0238 33.5547 5.17604 33.5547 5.48052V9.13423C33.5547 9.43871 33.4022 9.59094 33.0974 9.59094H27.5C27.1951 9.59094 27 9.43871 27 9.13423L26.9998 5.48052C26.9998 5.17604 27.195 5.0238 27.4998 5.0238Z" fill="#E4BA77"/>
<path d="M33.0975 5.48057V9.13428H27.5V5.48057H33.0975ZM33.0975 4.56714H27.6467C27.4041 4.56714 27.1715 4.66337 27 4.83468C26.8285 5.00598 26.7321 5.23831 26.7321 5.48057V9.13428C26.7321 9.37653 26.8285 9.60887 27 9.78017C27.1715 9.95147 27.4041 10.0477 27.6467 10.0477H33.0975C33.3401 10.0477 33.5727 9.95147 33.7442 9.78017C33.9158 9.60887 34.0121 9.37653 34.0121 9.13428V5.48057C34.0121 5.23831 33.9158 5.00598 33.7442 4.83468C33.5727 4.66337 33.3401 4.56714 33.0975 4.56714Z" fill="#4D4D4D"/>
<path d="M0.324356 7.63148C0.281431 7.58959 0.247736 7.53919 0.225439 7.48352C0.203142 7.42785 0.192736 7.36815 0.19489 7.30825C0.192951 7.24832 0.203316 7.18865 0.225343 7.13291C0.247371 7.07718 0.280594 7.02657 0.322962 6.9842C0.365331 6.94183 0.415944 6.90861 0.471679 6.88658C0.527414 6.86455 0.587087 6.85419 0.647014 6.85612L5.81744 6.85942C5.93742 6.85949 6.05252 6.90723 6.13742 6.99213C6.22232 7.07703 6.27006 7.19213 6.27013 7.31212C6.27021 7.4321 6.22262 7.54715 6.13783 7.63194C6.05304 7.71673 5.938 7.76432 5.81801 7.76424L0.64759 7.76095C0.58769 7.7631 0.527986 7.7527 0.472318 7.7304C0.416649 7.7081 0.366249 7.67441 0.324356 7.63148Z" fill="#E4BA77"/>
</svg>
