<svg width="33" height="24" viewBox="0 0 33 24" fill="none" xmlns="http://www.w3.org/2000/svg">
<path d="M31.0975 0.913428V22.8357H6.40354V0.913428H31.0975ZM31.0975 0H6.40354C6.16098 0 5.92835 0.0962359 5.75683 0.267537C5.58531 0.438838 5.48895 0.671172 5.48895 0.913428V22.8357C5.48895 23.078 5.58531 23.3103 5.75683 23.4816C5.92835 23.6529 6.16098 23.7491 6.40354 23.7491H31.0975C31.3401 23.7491 31.5727 23.6529 31.7442 23.4816C31.9158 23.3103 32.0121 23.078 32.0121 22.8357V0.913428C32.0121 0.671172 31.9158 0.438838 31.7442 0.267537C31.5727 0.0962359 31.3401 0 31.0975 0Z"/>
<path d="M6.40353 9.13428H31.0975V10.0477H6.40353V9.13428ZM6.40353 13.7014H31.0975V14.6148H6.40353V13.7014ZM6.40353 18.2686H31.0975V19.182H6.40353V18.2686ZM6.40353 4.56714H31.0975V5.48057H6.40353V4.56714Z" fill="#B3B3B3"/>
<path d="M12.8057 0.913452V22.8357H11.8911V0.913452H12.8057ZM19.2078 0.913452V22.8357H18.2932V0.913452H19.2078ZM25.61 0.913452V22.8357H24.6954V0.913452H25.61Z" fill="#B3B3B3"/>
<path d="M6.40352 5.0238H31.0975C31.4024 5.0238 31.5548 5.17604 31.5548 5.48052V9.13423C31.5548 9.43871 31.4024 9.59094 31.0975 9.59094H6.40352C6.09866 9.59094 5.94623 9.43871 5.94623 9.13423V5.48052C5.94623 5.17604 6.09866 5.0238 6.40352 5.0238Z" fill="#D05555"/>
<path d="M31.0975 5.48057V9.13428H6.40354V5.48057H31.0975ZM31.0975 4.56714H6.40354C6.16098 4.56714 5.92835 4.66337 5.75683 4.83468C5.58531 5.00598 5.48895 5.23831 5.48895 5.48057V9.13428C5.48895 9.37653 5.58531 9.60887 5.75683 9.78017C5.92835 9.95147 6.16098 10.0477 6.40354 10.0477H31.0975C31.3401 10.0477 31.5727 9.95147 31.7442 9.78017C31.9158 9.60887 32.0121 9.37653 32.0121 9.13428V5.48057C32.0121 5.23831 31.9158 5.00598 31.7442 4.83468C31.5727 4.66337 31.3401 4.56714 31.0975 4.56714Z"/>
<path d="M4.11705 9.59099C4.05708 9.59172 3.99761 9.57991 3.94248 9.55631C3.88735 9.53271 3.83778 9.49785 3.79694 9.45397L0.138578 5.80026C0.0948321 5.75926 0.0599658 5.70973 0.0361313 5.65475C0.0122968 5.59976 0 5.54048 0 5.48056C0 5.42064 0.0122968 5.36136 0.0361313 5.30638C0.0599658 5.25139 0.0948321 5.20187 0.138578 5.16086C0.179634 5.11717 0.229221 5.08235 0.284277 5.05855C0.339333 5.03474 0.398691 5.02246 0.458685 5.02246C0.518679 5.02246 0.578036 5.03474 0.633093 5.05855C0.688149 5.08235 0.737736 5.11717 0.778792 5.16086L4.43716 8.81457C4.48091 8.85558 4.51577 8.9051 4.53961 8.96009C4.56344 9.01507 4.57574 9.07436 4.57574 9.13427C4.57574 9.19419 4.56344 9.25347 4.53961 9.30846C4.51577 9.36345 4.48091 9.41297 4.43716 9.45397C4.39633 9.49785 4.34675 9.53271 4.29162 9.55631C4.23649 9.57991 4.17703 9.59172 4.11705 9.59099Z" fill="#D05555"/>
<path d="M0.458685 9.59099C0.39871 9.59172 0.339245 9.57991 0.284116 9.55631C0.228986 9.53272 0.17941 9.49786 0.138578 9.45398C0.0948321 9.41297 0.0599658 9.36345 0.0361313 9.30846C0.0122968 9.25348 0 9.1942 0 9.13428C0 9.07436 0.0122968 9.01508 0.0361313 8.96009C0.0599658 8.90511 0.0948321 8.85558 0.138578 8.81458L3.79695 5.16087C3.88184 5.07608 3.99699 5.02844 4.11705 5.02844C4.23712 5.02844 4.35226 5.07608 4.43716 5.16087C4.52206 5.24566 4.56975 5.36066 4.56975 5.48057C4.56975 5.60048 4.52206 5.71548 4.43716 5.80027L0.778792 9.45398C0.737959 9.49786 0.688384 9.53272 0.633254 9.55631C0.578124 9.57991 0.51866 9.59172 0.458685 9.59099Z" fill="#D05555"/>
</svg>
