<svg width="27" height="29" viewBox="0 0 27 29" fill="none" xmlns="http://www.w3.org/2000/svg">
<path d="M25.7695 27.7557L1.28949 27.7557L1.28949 6.34134L25.7695 6.34134L25.7695 27.7557ZM26.7895 27.7557L26.7895 6.34134C26.7895 6.23719 26.7631 6.13405 26.7118 6.03783C26.6606 5.9416 26.5855 5.85417 26.4907 5.78052C26.396 5.70687 26.2836 5.64845 26.1598 5.60859C26.0361 5.56873 25.9034 5.54822 25.7695 5.54822L1.28949 5.54822C1.15554 5.54822 1.02291 5.56873 0.899153 5.60859C0.775401 5.64845 0.662955 5.70687 0.56824 5.78052C0.473524 5.85417 0.398392 5.9416 0.347132 6.03782C0.295873 6.13405 0.269489 6.23719 0.269489 6.34134L0.269488 27.7557C0.269488 27.966 0.376952 28.1677 0.568239 28.3165C0.759526 28.4652 1.01897 28.5488 1.28949 28.5488L25.7695 28.5488C26.04 28.5488 26.2995 28.4652 26.4907 28.3165C26.682 28.1677 26.7895 27.966 26.7895 27.7557Z" fill="#4D4D4D"/>
<path d="M16.5895 6.34131L16.5895 27.7556L15.5695 27.7556L15.5695 6.34131L16.5895 6.34131ZM11.4895 6.34131L11.4895 27.7556L10.4695 27.7556L10.4695 6.34131L11.4895 6.34131ZM6.38948 6.34131L6.38948 27.7556L5.36948 27.7556L5.36949 6.34131L6.38948 6.34131ZM21.6895 6.34131L21.6895 27.7556L20.6695 27.7556L20.6695 6.34131L21.6895 6.34131Z" fill="#B3B3B3"/>
<path d="M25.7695 11.8931L1.2895 11.8931L1.2895 11.1L25.7695 11.1L25.7695 11.8931ZM25.7695 17.445L1.2895 17.445L1.2895 16.6518L25.7695 16.6518L25.7695 17.445ZM25.7695 22.9968L1.2895 22.9968L1.2895 22.2037L25.7695 22.2037L25.7695 22.9968Z" fill="#B3B3B3"/>
<path d="M21.1795 6.34126L21.1795 27.7556C21.1795 28.02 21.0095 28.1521 20.6695 28.1521L16.5895 28.1521C16.2495 28.1521 16.0795 28.02 16.0795 27.7556L16.0795 6.34126C16.0795 6.07689 16.2495 5.9447 16.5895 5.9447L20.6695 5.9447C21.0095 5.9447 21.1795 6.07689 21.1795 6.34126Z" fill="#66A35C"/>
<path d="M20.6695 27.7557L16.5895 27.7557L16.5895 6.34134L20.6695 6.34134L20.6695 27.7557ZM21.6895 27.7557L21.6895 6.34134C21.6895 6.23719 21.6631 6.13405 21.6118 6.03783C21.5606 5.9416 21.4854 5.85417 21.3907 5.78052C21.296 5.70687 21.1836 5.64845 21.0598 5.60859C20.9361 5.56873 20.8034 5.54822 20.6695 5.54822L16.5895 5.54822C16.4555 5.54822 16.3229 5.56873 16.1991 5.60859C16.0754 5.64845 15.963 5.70687 15.8682 5.78052C15.7735 5.85417 15.6984 5.9416 15.6471 6.03782C15.5959 6.13405 15.5695 6.23719 15.5695 6.34134L15.5695 27.7557C15.5695 27.966 15.6769 28.1677 15.8682 28.3165C16.0595 28.4652 16.319 28.5488 16.5895 28.5488L20.6695 28.5488C20.94 28.5488 21.1994 28.4652 21.3907 28.3165C21.582 28.1677 21.6895 27.966 21.6895 27.7557Z" fill="#4D4D4D"/>
<path d="M18.7206 4.57288L21.4413 1.8291L16 1.8291L18.7206 4.57288Z" fill="#66A35C"/>
<path d="M19.5913 1.82918L17.8501 1.82918C17.8259 1.82918 17.8138 1.81699 17.8138 1.7926L17.8138 0.0365836C17.8138 0.0121945 17.8259 -7.87536e-08 17.8501 -7.76965e-08L19.5913 -1.58564e-09C19.6155 -5.28541e-10 19.6276 0.0121946 19.6276 0.0365837L19.6276 1.7926C19.6276 1.81699 19.6155 1.82918 19.5913 1.82918Z" fill="#66A35C"/>
</svg>
