<svg width="27" height="30" viewBox="0 0 27 30" fill="none" xmlns="http://www.w3.org/2000/svg">
<path d="M25.5 28.9673L1.01999 28.9673L1.01999 7.55301L25.5 7.55301L25.5 28.9673ZM26.52 28.9673L26.52 7.55301C26.52 7.34266 26.4125 7.14093 26.2212 6.99219C26.03 6.84345 25.7705 6.75989 25.5 6.75989L1.01999 6.75989C0.749468 6.75989 0.490026 6.84345 0.298739 6.99219C0.107452 7.14093 -1.14696e-05 7.34266 -1.14788e-05 7.55301L-1.24148e-05 28.9673C-1.2424e-05 29.1777 0.107451 29.3794 0.298738 29.5281C0.490025 29.6769 0.749467 29.7604 1.01999 29.7604L25.5 29.7604C25.7705 29.7604 26.0299 29.6769 26.2212 29.5281C26.4125 29.3794 26.52 29.1777 26.52 28.9673Z"/>
<path d="M16.32 7.5531L16.32 28.9674L15.3 28.9674L15.3 7.5531L16.32 7.5531ZM11.22 7.5531L11.22 28.9674L10.2 28.9674L10.2 7.5531L11.22 7.5531ZM6.11998 7.5531L6.11998 28.9674L5.09998 28.9674L5.09998 7.5531L6.11998 7.5531ZM21.42 7.5531L21.42 28.9674L20.4 28.9674L20.4 7.5531L21.42 7.5531Z" fill="#B3B3B3"/>
<path d="M25.5 13.1049L1.02 13.1049L1.02 12.3118L25.5 12.3118L25.5 13.1049ZM25.5 18.6567L1.02 18.6567L1.02 17.8636L25.5 17.8636L25.5 18.6567ZM25.5 24.2086L1.02 24.2086L1.02 23.4155L25.5 23.4155L25.5 24.2086Z" fill="#B3B3B3"/>
<path d="M20.91 7.55306L20.91 28.9674C20.91 29.2317 20.74 29.3639 20.4 29.3639L16.32 29.3639C15.98 29.3639 15.81 29.2317 15.81 28.9674L15.81 7.55305C15.81 7.28868 15.98 7.15649 16.32 7.15649L20.4 7.15649C20.74 7.15649 20.91 7.28868 20.91 7.55306Z" fill="#E4BA77"/>
<path d="M20.4 28.9673L16.32 28.9673L16.32 7.55301L20.4 7.55301L20.4 28.9673ZM21.42 28.9673L21.42 7.55301C21.42 7.34266 21.3125 7.14093 21.1212 6.99219C20.9299 6.84345 20.6705 6.75989 20.4 6.75989L16.32 6.75989C16.0495 6.75989 15.79 6.84345 15.5987 6.99219C15.4074 7.14093 15.3 7.34266 15.3 7.55301L15.3 28.9673C15.3 29.1777 15.4074 29.3794 15.5987 29.5281C15.79 29.6769 16.0495 29.7604 16.32 29.7604L20.4 29.7604C20.6705 29.7604 20.9299 29.6769 21.1212 29.5281C21.3125 29.3794 21.42 29.1777 21.42 28.9673Z"/>
<path d="M15.3805 3.60902C15.3376 3.56713 15.3039 3.51673 15.2816 3.46106C15.2593 3.40539 15.2489 3.34569 15.251 3.28579C15.2491 3.22586 15.2594 3.16619 15.2815 3.11045C15.3035 3.05472 15.3367 3.0041 15.3791 2.96174C15.4215 2.91937 15.4721 2.88614 15.5278 2.86412C15.5835 2.84209 15.6432 2.83172 15.7031 2.83366L20.8736 2.83696C20.9935 2.83703 21.1086 2.88477 21.1935 2.96967C21.2784 3.05457 21.3262 3.16967 21.3263 3.28966C21.3263 3.40964 21.2787 3.52468 21.194 3.60947C21.1092 3.69426 20.9941 3.74186 20.8741 3.74178L15.7037 3.73849C15.6438 3.74064 15.5841 3.73023 15.5284 3.70794C15.4728 3.68564 15.4224 3.65195 15.3805 3.60902Z" fill="#E4BA77"/>
</svg>
