<svg width="27" height="29" viewBox="0 0 27 29" fill="none" xmlns="http://www.w3.org/2000/svg">
<path d="M25.5 27.9673L1.01999 27.9673L1.01999 6.55301L25.5 6.55301L25.5 27.9673ZM26.52 27.9673L26.52 6.55301C26.52 6.34266 26.4125 6.14093 26.2212 5.99219C26.03 5.84345 25.7705 5.75989 25.5 5.75989L1.01999 5.75989C0.749468 5.75989 0.490026 5.84345 0.298739 5.99219C0.107452 6.14093 -1.14696e-05 6.34266 -1.14788e-05 6.55301L-1.24148e-05 27.9673C-1.2424e-05 28.1777 0.107451 28.3794 0.298738 28.5281C0.490025 28.6769 0.749467 28.7604 1.01999 28.7604L25.5 28.7604C25.7705 28.7604 26.0299 28.6769 26.2212 28.5281C26.4125 28.3794 26.52 28.1777 26.52 27.9673Z"/>
<path d="M16.32 6.5531L16.32 27.9674L15.3 27.9674L15.3 6.5531L16.32 6.5531ZM11.22 6.5531L11.22 27.9674L10.2 27.9674L10.2 6.5531L11.22 6.5531ZM6.11998 6.5531L6.11998 27.9674L5.09998 27.9674L5.09998 6.5531L6.11998 6.5531ZM21.42 6.5531L21.42 27.9674L20.4 27.9674L20.4 6.5531L21.42 6.5531Z" fill="#B3B3B3"/>
<path d="M25.5 12.1049L1.02 12.1049L1.02 11.3118L25.5 11.3118L25.5 12.1049ZM25.5 17.6567L1.02 17.6567L1.02 16.8636L25.5 16.8636L25.5 17.6567ZM25.5 23.2086L1.02 23.2086L1.02 22.4155L25.5 22.4155L25.5 23.2086Z" fill="#B3B3B3"/>
<path d="M20.91 6.55306L20.91 27.9674C20.91 28.2317 20.74 28.3639 20.4 28.3639L16.32 28.3639C15.98 28.3639 15.81 28.2317 15.81 27.9674L15.81 6.55305C15.81 6.28868 15.98 6.15649 16.32 6.15649L20.4 6.15649C20.74 6.15649 20.91 6.28868 20.91 6.55306Z" fill="#D05555"/>
<path d="M20.4 27.9673L16.32 27.9673L16.32 6.55301L20.4 6.55301L20.4 27.9673ZM21.42 27.9673L21.42 6.55301C21.42 6.34266 21.3125 6.14093 21.1212 5.99219C20.9299 5.84345 20.6705 5.75989 20.4 5.75989L16.32 5.75989C16.0495 5.75989 15.79 5.84345 15.5987 5.99219C15.4074 6.14093 15.3 6.34266 15.3 6.55301L15.3 27.9673C15.3 28.1777 15.4074 28.3794 15.5987 28.5281C15.79 28.6769 16.0495 28.7604 16.32 28.7604L20.4 28.7604C20.6705 28.7604 20.9299 28.6769 21.1212 28.5281C21.3125 28.3794 21.42 28.1777 21.42 27.9673Z"/>
<path d="M20.1171 4.56853C20.0571 4.56926 19.9976 4.55744 19.9425 4.53385C19.8874 4.51025 19.8378 4.47539 19.7969 4.43151L16.1386 0.777801C16.0948 0.736797 16.06 0.687273 16.0361 0.632287C16.0123 0.577301 16 0.518019 16 0.458101C16 0.398184 16.0123 0.338902 16.0361 0.283915C16.06 0.228929 16.0948 0.179405 16.1386 0.138401C16.1796 0.0947113 16.2292 0.0598896 16.2843 0.0360854C16.3393 0.0122813 16.3987 0 16.4587 0C16.5187 0 16.578 0.0122813 16.6331 0.0360854C16.6881 0.0598896 16.7377 0.0947113 16.7788 0.138401L20.4372 3.79211C20.4809 3.83312 20.5158 3.88264 20.5396 3.93763C20.5634 3.99261 20.5757 4.0519 20.5757 4.11181C20.5757 4.17173 20.5634 4.23101 20.5396 4.286C20.5158 4.34099 20.4809 4.39051 20.4372 4.43151C20.3963 4.47539 20.3468 4.51025 20.2916 4.53385C20.2365 4.55744 20.177 4.56926 20.1171 4.56853Z" fill="#D05555"/>
<path d="M16.4587 4.56853C16.3987 4.56926 16.3392 4.55745 16.2841 4.53385C16.229 4.51025 16.1794 4.4754 16.1386 4.43152C16.0948 4.39051 16.06 4.34099 16.0361 4.286C16.0123 4.23102 16 4.17174 16 4.11182C16 4.0519 16.0123 3.99262 16.0361 3.93763C16.06 3.88265 16.0948 3.83312 16.1386 3.79212L19.7969 0.138405C19.8818 0.0536155 19.997 0.00598144 20.1171 0.00598145C20.2371 0.00598145 20.3523 0.0536155 20.4372 0.138405C20.5221 0.223195 20.5698 0.338194 20.5698 0.458105C20.5698 0.578016 20.5221 0.693015 20.4372 0.777805L16.7788 4.43152C16.738 4.4754 16.6884 4.51025 16.6333 4.53385C16.5781 4.55745 16.5187 4.56926 16.4587 4.56853Z" fill="#D05555"/>
</svg>
