<svg width="14" height="15" viewBox="0 0 14 15">
<mask id="path-1-outside-1_37_103" maskUnits="userSpaceOnUse" x="0" y="-0.255859" width="14" height="16">
<rect fill="white" y="-0.255859" width="14" height="16"/>
<path fill-rule="evenodd" clip-rule="evenodd" d="M3.65918 5.29688L3.59766 5.60449C3.82552 5.59538 4.01921 5.59082 4.17871 5.59082C4.26986 5.59082 4.44987 5.5931 4.71875 5.59766L4.14453 9.00195C3.92122 10.3099 3.69564 11.3945 3.46777 12.2559C3.33561 12.7663 3.20117 13.1195 3.06445 13.3154C2.92773 13.5114 2.78874 13.6481 2.64746 13.7256C2.50618 13.8031 2.35579 13.8418 2.19629 13.8418C1.92741 13.8418 1.69271 13.7142 1.49219 13.459L1.32129 13.5C1.26204 13.7917 1.15495 14.1654 1 14.6211C1.17773 14.7077 1.33952 14.751 1.48535 14.751C1.71777 14.751 1.95475 14.6872 2.19629 14.5596C2.58366 14.359 2.9528 14.056 3.30371 13.6504C3.65918 13.2448 3.94401 12.7754 4.1582 12.2422C4.3724 11.7135 4.6276 10.7702 4.92383 9.41211L5.7373 5.59766C6.05176 5.58854 6.30241 5.58398 6.48926 5.58398C6.68978 5.58398 6.91764 5.59082 7.17285 5.60449C7.22754 5.36296 7.30729 5.09408 7.41211 4.79785L7.35059 4.71582C7.18652 4.76595 7.02702 4.80013 6.87207 4.81836C6.78092 4.82747 6.44596 4.83887 5.86719 4.85254C5.94922 4.41504 6.06543 3.84766 6.21582 3.15039C6.32064 2.64453 6.41862 2.30729 6.50977 2.13867C6.60091 1.97005 6.7194 1.83789 6.86523 1.74219C7.01562 1.64648 7.19792 1.59863 7.41211 1.59863C7.60352 1.59863 7.78581 1.64421 7.95898 1.73535C8.13672 1.8265 8.28255 1.95182 8.39648 2.11133L8.54688 2.06348C8.62435 1.79915 8.75423 1.4209 8.93652 0.928711C8.62663 0.805664 8.3304 0.744141 8.04785 0.744141C7.83822 0.744141 7.65137 0.780599 7.4873 0.853516C7.24577 0.962891 6.89941 1.19303 6.44824 1.54395C6.00163 1.89486 5.70312 2.16146 5.55273 2.34375C5.4069 2.52604 5.30436 2.72428 5.24512 2.93848C5.21777 3.03874 5.09017 3.64486 4.8623 4.75684C4.62077 4.91178 4.21973 5.0918 3.65918 5.29688ZM7.24609 10.4926L7.11621 11.0459C7.27572 11.1455 7.46256 11.1953 7.67676 11.1953C7.9502 11.1953 8.20312 11.1178 8.43555 10.9629C8.85938 10.6825 9.44727 10.0351 10.1992 9.02064C10.3359 9.88018 10.4909 10.4557 10.6641 10.7471C10.8372 11.0385 11.0719 11.1842 11.3682 11.1842C11.5368 11.1842 11.7054 11.1418 11.874 11.057C12.2249 10.8836 12.6829 10.5792 13.248 10.1439L13.0908 9.94473C12.7809 10.1698 12.5553 10.3136 12.4141 10.3764C12.2773 10.4354 12.1452 10.4649 12.0176 10.4649C11.89 10.4649 11.776 10.4225 11.6758 10.3376C11.5163 10.2011 11.375 9.93551 11.252 9.54079C11.179 9.29731 11.0651 8.79745 10.9102 8.0412C11.375 7.5026 11.6803 7.16506 11.8262 7.02857C12.0495 6.81829 12.2546 6.67073 12.4414 6.58588C12.5781 6.52686 12.7217 6.49735 12.8721 6.49735C12.9723 6.49735 13.0521 6.51395 13.1113 6.54715C13.1751 6.58035 13.2412 6.64675 13.3096 6.74636L13.4941 6.71315C13.5579 6.37008 13.6286 6.04913 13.7061 5.75032C13.5648 5.68761 13.4235 5.65625 13.2822 5.65625C13.1455 5.65625 12.9974 5.68576 12.8379 5.74479C12.6784 5.80012 12.5029 5.90526 12.3115 6.0602C12.0518 6.26678 11.8079 6.50472 11.5801 6.77402L10.8145 7.70919C10.7096 6.91974 10.5729 6.40328 10.4043 6.1598C10.1764 5.83148 9.83919 5.66732 9.39258 5.66732C9.24219 5.66732 9.09863 5.68392 8.96191 5.71712C8.82975 5.74663 8.70443 5.79459 8.58594 5.86099L7.76562 6.80722L8.01172 6.92343L8.18945 6.77956C8.38542 6.61355 8.54036 6.50841 8.6543 6.46415C8.77279 6.41619 8.89811 6.39221 9.03027 6.39221C9.22168 6.39221 9.37207 6.46046 9.48145 6.59695C9.70475 6.87732 9.91211 7.55794 10.1035 8.63882C9.67513 9.19955 9.38346 9.56108 9.22852 9.72339C8.92773 10.0406 8.67253 10.2509 8.46289 10.3542C8.33984 10.4169 8.19857 10.4483 8.03906 10.4483C7.94336 10.4483 7.83398 10.4169 7.71094 10.3542L7.55371 10.0333L7.28711 10.072C7.27799 10.2343 7.26432 10.3745 7.24609 10.4926Z"/>
</mask>
<path fill-rule="evenodd" clip-rule="evenodd" d="M3.65918 5.29688L3.59766 5.60449C3.82552 5.59538 4.01921 5.59082 4.17871 5.59082C4.26986 5.59082 4.44987 5.5931 4.71875 5.59766L4.14453 9.00195C3.92122 10.3099 3.69564 11.3945 3.46777 12.2559C3.33561 12.7663 3.20117 13.1195 3.06445 13.3154C2.92773 13.5114 2.78874 13.6481 2.64746 13.7256C2.50618 13.8031 2.35579 13.8418 2.19629 13.8418C1.92741 13.8418 1.69271 13.7142 1.49219 13.459L1.32129 13.5C1.26204 13.7917 1.15495 14.1654 1 14.6211C1.17773 14.7077 1.33952 14.751 1.48535 14.751C1.71777 14.751 1.95475 14.6872 2.19629 14.5596C2.58366 14.359 2.9528 14.056 3.30371 13.6504C3.65918 13.2448 3.94401 12.7754 4.1582 12.2422C4.3724 11.7135 4.6276 10.7702 4.92383 9.41211L5.7373 5.59766C6.05176 5.58854 6.30241 5.58398 6.48926 5.58398C6.68978 5.58398 6.91764 5.59082 7.17285 5.60449C7.22754 5.36296 7.30729 5.09408 7.41211 4.79785L7.35059 4.71582C7.18652 4.76595 7.02702 4.80013 6.87207 4.81836C6.78092 4.82747 6.44596 4.83887 5.86719 4.85254C5.94922 4.41504 6.06543 3.84766 6.21582 3.15039C6.32064 2.64453 6.41862 2.30729 6.50977 2.13867C6.60091 1.97005 6.7194 1.83789 6.86523 1.74219C7.01562 1.64648 7.19792 1.59863 7.41211 1.59863C7.60352 1.59863 7.78581 1.64421 7.95898 1.73535C8.13672 1.8265 8.28255 1.95182 8.39648 2.11133L8.54688 2.06348C8.62435 1.79915 8.75423 1.4209 8.93652 0.928711C8.62663 0.805664 8.3304 0.744141 8.04785 0.744141C7.83822 0.744141 7.65137 0.780599 7.4873 0.853516C7.24577 0.962891 6.89941 1.19303 6.44824 1.54395C6.00163 1.89486 5.70312 2.16146 5.55273 2.34375C5.4069 2.52604 5.30436 2.72428 5.24512 2.93848C5.21777 3.03874 5.09017 3.64486 4.8623 4.75684C4.62077 4.91178 4.21973 5.0918 3.65918 5.29688ZM7.24609 10.4926L7.11621 11.0459C7.27572 11.1455 7.46256 11.1953 7.67676 11.1953C7.9502 11.1953 8.20312 11.1178 8.43555 10.9629C8.85938 10.6825 9.44727 10.0351 10.1992 9.02064C10.3359 9.88018 10.4909 10.4557 10.6641 10.7471C10.8372 11.0385 11.0719 11.1842 11.3682 11.1842C11.5368 11.1842 11.7054 11.1418 11.874 11.057C12.2249 10.8836 12.6829 10.5792 13.248 10.1439L13.0908 9.94473C12.7809 10.1698 12.5553 10.3136 12.4141 10.3764C12.2773 10.4354 12.1452 10.4649 12.0176 10.4649C11.89 10.4649 11.776 10.4225 11.6758 10.3376C11.5163 10.2011 11.375 9.93551 11.252 9.54079C11.179 9.29731 11.0651 8.79745 10.9102 8.0412C11.375 7.5026 11.6803 7.16506 11.8262 7.02857C12.0495 6.81829 12.2546 6.67073 12.4414 6.58588C12.5781 6.52686 12.7217 6.49735 12.8721 6.49735C12.9723 6.49735 13.0521 6.51395 13.1113 6.54715C13.1751 6.58035 13.2412 6.64675 13.3096 6.74636L13.4941 6.71315C13.5579 6.37008 13.6286 6.04913 13.7061 5.75032C13.5648 5.68761 13.4235 5.65625 13.2822 5.65625C13.1455 5.65625 12.9974 5.68576 12.8379 5.74479C12.6784 5.80012 12.5029 5.90526 12.3115 6.0602C12.0518 6.26678 11.8079 6.50472 11.5801 6.77402L10.8145 7.70919C10.7096 6.91974 10.5729 6.40328 10.4043 6.1598C10.1764 5.83148 9.83919 5.66732 9.39258 5.66732C9.24219 5.66732 9.09863 5.68392 8.96191 5.71712C8.82975 5.74663 8.70443 5.79459 8.58594 5.86099L7.76562 6.80722L8.01172 6.92343L8.18945 6.77956C8.38542 6.61355 8.54036 6.50841 8.6543 6.46415C8.77279 6.41619 8.89811 6.39221 9.03027 6.39221C9.22168 6.39221 9.37207 6.46046 9.48145 6.59695C9.70475 6.87732 9.91211 7.55794 10.1035 8.63882C9.67513 9.19955 9.38346 9.56108 9.22852 9.72339C8.92773 10.0406 8.67253 10.2509 8.46289 10.3542C8.33984 10.4169 8.19857 10.4483 8.03906 10.4483C7.94336 10.4483 7.83398 10.4169 7.71094 10.3542L7.55371 10.0333L7.28711 10.072C7.27799 10.2343 7.26432 10.3745 7.24609 10.4926Z" />
<path d="M3.59766 5.60449L3.45057 5.57507C3.44155 5.62017 3.45372 5.66691 3.48358 5.70189C3.51344 5.73687 3.5577 5.75621 3.60365 5.75437L3.59766 5.60449ZM3.65918 5.29688L3.60764 5.15601C3.55855 5.17397 3.52235 5.2162 3.51209 5.26746L3.65918 5.29688ZM4.71875 5.59766L4.86666 5.6226C4.87393 5.57951 4.86204 5.5354 4.83411 5.50179C4.80618 5.46818 4.76499 5.44842 4.72129 5.44768L4.71875 5.59766ZM4.14453 9.00195L4.29239 9.0272L4.29244 9.0269L4.14453 9.00195ZM3.46777 12.2559L3.32276 12.2175L3.32256 12.2183L3.46777 12.2559ZM1.49219 13.459L1.61014 13.3663C1.57392 13.3202 1.51418 13.2994 1.45718 13.3131L1.49219 13.459ZM1.32129 13.5L1.28628 13.3541C1.22958 13.3678 1.1859 13.413 1.17429 13.4701L1.32129 13.5ZM1 14.6211L0.857984 14.5728C0.833656 14.6444 0.866361 14.7228 0.934304 14.7559L1 14.6211ZM2.19629 14.5596L2.12733 14.4264L2.12622 14.4269L2.19629 14.5596ZM3.30371 13.6504L3.1909 13.5515L3.19027 13.5522L3.30371 13.6504ZM4.1582 12.2422L4.01918 12.1859L4.01901 12.1863L4.1582 12.2422ZM4.92383 9.41211L5.07038 9.44408L5.07053 9.44339L4.92383 9.41211ZM5.7373 5.59766L5.73296 5.44772C5.66383 5.44972 5.60503 5.49873 5.5906 5.56637L5.7373 5.59766ZM7.17285 5.60449L7.16483 5.75428C7.23782 5.75819 7.30301 5.70891 7.31915 5.63762L7.17285 5.60449ZM7.41211 4.79785L7.55352 4.84789C7.57026 4.80057 7.56223 4.74801 7.53211 4.70785L7.41211 4.79785ZM7.35059 4.71582L7.47059 4.62582C7.43268 4.57528 7.36717 4.55391 7.30675 4.57237L7.35059 4.71582ZM6.87207 4.81836L6.887 4.96764L6.8896 4.96733L6.87207 4.81836ZM5.86719 4.85254L5.71976 4.8249C5.71142 4.86936 5.7236 4.91522 5.7529 4.94969C5.7822 4.98416 5.8255 5.00357 5.87073 5.0025L5.86719 4.85254ZM6.21582 3.15039L6.36245 3.18202L6.3627 3.18083L6.21582 3.15039ZM6.86523 1.74219L6.7847 1.61563L6.78294 1.61678L6.86523 1.74219ZM7.95898 1.73535L7.88912 1.8681L7.89054 1.86882L7.95898 1.73535ZM8.39648 2.11133L8.27442 2.19851C8.31226 2.25148 8.37994 2.274 8.44197 2.25427L8.39648 2.11133ZM8.54688 2.06348L8.59236 2.20642C8.63989 2.19129 8.67679 2.15353 8.69082 2.10567L8.54688 2.06348ZM8.93652 0.928711L9.07719 0.980808C9.10549 0.904397 9.06761 0.819368 8.99188 0.789298L8.93652 0.928711ZM7.4873 0.853516L7.42638 0.716441L7.42543 0.716872L7.4873 0.853516ZM6.44824 1.54395L6.35615 1.42554L6.35557 1.426L6.44824 1.54395ZM5.55273 2.34375L5.43702 2.24828L5.4356 2.25005L5.55273 2.34375ZM5.24512 2.93848L5.10054 2.89849L5.1004 2.89901L5.24512 2.93848ZM4.8623 4.75684L4.9433 4.88309C4.97735 4.86125 5.00113 4.82658 5.00925 4.78695L4.8623 4.75684ZM7.11621 11.0459L6.97018 11.0116C6.9555 11.0742 6.98227 11.1391 7.03676 11.1731L7.11621 11.0459ZM7.24609 10.4926L7.39256 10.5269L7.39434 10.5154L7.24609 10.4926ZM8.43555 10.9629L8.35279 10.8378L8.35234 10.8381L8.43555 10.9629ZM10.1992 9.02064L10.3474 8.99707C10.3379 8.93743 10.2935 8.8893 10.2349 8.87494C10.1762 8.86058 10.1147 8.8828 10.0787 8.93131L10.1992 9.02064ZM10.6641 10.7471L10.5351 10.8237L10.6641 10.7471ZM11.874 11.057L11.8076 10.9225L11.8066 10.923L11.874 11.057ZM13.248 10.1439L13.3396 10.2628C13.3713 10.2383 13.392 10.2022 13.3969 10.1624C13.4018 10.1226 13.3906 10.0825 13.3658 10.051L13.248 10.1439ZM13.0908 9.94473L13.2086 9.8518C13.1587 9.78861 13.0678 9.77606 13.0027 9.82336L13.0908 9.94473ZM12.4141 10.3764L12.4735 10.5141L12.4749 10.5134L12.4141 10.3764ZM11.6758 10.3376L11.5783 10.4516L11.5789 10.4521L11.6758 10.3376ZM11.252 9.54079L11.1082 9.58382L11.1087 9.58543L11.252 9.54079ZM10.9102 8.0412L10.7966 7.9432C10.7662 7.97841 10.7539 8.02574 10.7632 8.07131L10.9102 8.0412ZM11.8262 7.02857L11.9287 7.13808L11.929 7.13777L11.8262 7.02857ZM12.4414 6.58588L12.3819 6.44814L12.3794 6.44931L12.4414 6.58588ZM13.1113 6.54715L13.038 6.67806L13.0421 6.68021L13.1113 6.54715ZM13.3096 6.74636L13.1859 6.83123C13.2193 6.87987 13.2781 6.90443 13.3361 6.89399L13.3096 6.74636ZM13.4941 6.71315L13.5207 6.86078C13.5821 6.84974 13.6302 6.80189 13.6416 6.74058L13.4941 6.71315ZM13.7061 5.75032L13.8513 5.78797C13.8697 5.71693 13.834 5.643 13.7669 5.61322L13.7061 5.75032ZM12.8379 5.74479L12.8871 5.88653L12.8899 5.88546L12.8379 5.74479ZM12.3115 6.0602L12.4049 6.1776L12.4059 6.17679L12.3115 6.0602ZM11.5801 6.77402L11.4656 6.67712L11.464 6.679L11.5801 6.77402ZM10.8145 7.70919L10.6658 7.72893C10.6736 7.78819 10.7159 7.83712 10.7734 7.85347C10.8309 7.86982 10.8926 7.85047 10.9305 7.80421L10.8145 7.70919ZM10.4043 6.1598L10.5276 6.0744L10.5275 6.07428L10.4043 6.1598ZM8.96191 5.71712L8.99461 5.86354L8.99731 5.86288L8.96191 5.71712ZM8.58594 5.86099L8.51261 5.73014C8.49749 5.73861 8.48395 5.74964 8.4726 5.76273L8.58594 5.86099ZM7.76562 6.80722L7.65229 6.70897C7.62154 6.74443 7.60917 6.79223 7.61885 6.83816C7.62853 6.88408 7.65914 6.92282 7.70158 6.94286L7.76562 6.80722ZM8.01172 6.92343L7.94767 7.05907C7.99976 7.08366 8.06132 7.07626 8.1061 7.04002L8.01172 6.92343ZM8.18945 6.77956L8.28385 6.89617L8.28641 6.89401L8.18945 6.77956ZM8.6543 6.46415L8.70863 6.60398L8.71057 6.60319L8.6543 6.46415ZM9.48145 6.59695L9.59878 6.5035L9.5985 6.50315L9.48145 6.59695ZM10.1035 8.63882L10.2227 8.72988C10.2482 8.69652 10.2585 8.65401 10.2512 8.61267L10.1035 8.63882ZM9.22852 9.72339L9.12001 9.61982L9.11966 9.62019L9.22852 9.72339ZM8.46289 10.3542L8.39659 10.2197L8.39478 10.2206L8.46289 10.3542ZM7.71094 10.3542L7.57623 10.4202C7.59052 10.4494 7.61389 10.4731 7.64282 10.4879L7.71094 10.3542ZM7.55371 10.0333L7.68842 9.96728C7.65976 9.90878 7.59661 9.87546 7.53214 9.88483L7.55371 10.0333ZM7.28711 10.072L7.26554 9.92356C7.19495 9.93382 7.14134 9.99237 7.13735 10.0636L7.28711 10.072ZM3.74474 5.63391L3.80627 5.32629L3.51209 5.26746L3.45057 5.57507L3.74474 5.63391ZM4.17871 5.44082C4.01656 5.44082 3.82075 5.44545 3.59166 5.45461L3.60365 5.75437C3.83029 5.74531 4.02185 5.74082 4.17871 5.74082V5.44082ZM4.72129 5.44768C4.45261 5.44312 4.27133 5.44082 4.17871 5.44082V5.74082C4.26838 5.74082 4.44713 5.74307 4.71621 5.74763L4.72129 5.44768ZM4.29244 9.0269L4.86666 5.6226L4.57084 5.57271L3.99662 8.977L4.29244 9.0269ZM3.61278 12.2942C3.8422 11.427 4.06866 10.3376 4.29239 9.0272L3.99667 8.97671C3.77379 10.2821 3.54908 11.362 3.32276 12.2175L3.61278 12.2942ZM3.18747 13.4013C3.34077 13.1815 3.48044 12.8054 3.61298 12.2935L3.32256 12.2183C3.19079 12.7272 3.06157 13.0574 2.94143 13.2296L3.18747 13.4013ZM2.71959 13.8571C2.88852 13.7645 3.0434 13.6078 3.18747 13.4013L2.94143 13.2296C2.81207 13.415 2.68896 13.5318 2.57534 13.5941L2.71959 13.8571ZM2.19629 13.9918C2.38127 13.9918 2.55644 13.9466 2.71959 13.8571L2.57534 13.5941C2.45593 13.6595 2.33032 13.6918 2.19629 13.6918V13.9918ZM1.37424 13.5517C1.59665 13.8347 1.87172 13.9918 2.19629 13.9918V13.6918C1.98309 13.6918 1.78877 13.5937 1.61014 13.3663L1.37424 13.5517ZM1.3563 13.6459L1.52719 13.6048L1.45718 13.3131L1.28628 13.3541L1.3563 13.6459ZM1.14202 14.6694C1.29793 14.2108 1.40725 13.8304 1.46829 13.5299L1.17429 13.4701C1.11684 13.753 1.01197 14.1199 0.857984 14.5728L1.14202 14.6694ZM1.48535 14.601C1.36889 14.601 1.22987 14.5662 1.0657 14.4862L0.934304 14.7559C1.1256 14.8491 1.31015 14.901 1.48535 14.901V14.601ZM2.12622 14.4269C1.90249 14.5451 1.6894 14.601 1.48535 14.601V14.901C1.74615 14.901 2.00701 14.8292 2.26636 14.6922L2.12622 14.4269ZM3.19027 13.5522C2.84905 13.9466 2.49439 14.2364 2.12733 14.4264L2.26525 14.6928C2.67293 14.4817 3.05654 14.1653 3.41715 13.7485L3.19027 13.5522ZM4.01901 12.1863C3.81071 12.7048 3.53451 13.1595 3.1909 13.5515L3.41652 13.7493C3.78385 13.3301 4.07731 12.846 4.29739 12.2981L4.01901 12.1863ZM4.77727 9.38014C4.48102 10.7383 4.22805 11.6704 4.01918 12.1859L4.29723 12.2985C4.51674 11.7567 4.77419 10.802 5.07038 9.44408L4.77727 9.38014ZM5.5906 5.56637L4.77713 9.38082L5.07053 9.44339L5.88401 5.62894L5.5906 5.56637ZM6.48926 5.43398C6.30032 5.43398 6.04803 5.43859 5.73296 5.44772L5.74165 5.74759C6.05549 5.7385 6.3045 5.73398 6.48926 5.73398V5.43398ZM7.18088 5.45471C6.92368 5.44093 6.69306 5.43398 6.48926 5.43398V5.73398C6.6865 5.73398 6.91161 5.74071 7.16483 5.75428L7.18088 5.45471ZM7.2707 4.74781C7.16442 5.04818 7.08283 5.32282 7.02655 5.57137L7.31915 5.63762C7.37225 5.40309 7.45017 5.13997 7.55352 4.84789L7.2707 4.74781ZM7.23059 4.80582L7.29211 4.88785L7.53211 4.70785L7.47059 4.62582L7.23059 4.80582ZM6.8896 4.96733C7.05429 4.94796 7.22261 4.91177 7.39442 4.85927L7.30675 4.57237C7.15044 4.62013 6.99974 4.6523 6.85454 4.66939L6.8896 4.96733ZM5.87073 5.0025C6.44577 4.98891 6.78856 4.97746 6.887 4.96762L6.85714 4.6691C6.77329 4.67749 6.44616 4.68882 5.86365 4.70258L5.87073 5.0025ZM6.06919 3.11876C5.91866 3.81667 5.80214 4.38552 5.71976 4.8249L6.01462 4.88018C6.0963 4.44456 6.2122 3.87864 6.36245 3.18202L6.06919 3.11876ZM6.37781 2.06734C6.27475 2.258 6.17333 2.61614 6.06894 3.11996L6.3627 3.18083C6.46794 2.67292 6.56249 2.35658 6.64172 2.21L6.37781 2.06734ZM6.78294 1.61678C6.61432 1.72743 6.47958 1.87907 6.37781 2.06734L6.64172 2.21C6.72224 2.06103 6.82448 1.94835 6.94753 1.86759L6.78294 1.61678ZM7.41211 1.44863C7.1752 1.44863 6.96363 1.50178 6.7847 1.61564L6.94577 1.86874C7.06762 1.79119 7.22064 1.74863 7.41211 1.74863V1.44863ZM8.02885 1.60261C7.83463 1.50039 7.62842 1.44863 7.41211 1.44863V1.74863C7.57861 1.74863 7.73698 1.78802 7.88912 1.86809L8.02885 1.60261ZM8.51854 2.02414C8.39042 1.84477 8.22605 1.70374 8.02743 1.60188L7.89054 1.86882C8.04738 1.94926 8.17468 2.05888 8.27442 2.19851L8.51854 2.02414ZM8.50139 1.92054L8.351 1.96839L8.44197 2.25427L8.59236 2.20642L8.50139 1.92054ZM8.79586 0.876614C8.61323 1.36971 8.4819 1.75187 8.40293 2.02129L8.69082 2.10567C8.7668 1.84644 8.89523 1.47209 9.07719 0.980808L8.79586 0.876614ZM8.04785 0.894141C8.30837 0.894141 8.58578 0.950835 8.88117 1.06812L8.99188 0.789298C8.66748 0.660493 8.35244 0.594141 8.04785 0.594141V0.894141ZM7.54823 0.990587C7.69016 0.927505 7.85572 0.894141 8.04785 0.894141V0.594141C7.82071 0.594141 7.61257 0.633693 7.42638 0.716444L7.54823 0.990587ZM6.54033 1.66235C6.99034 1.31234 7.3249 1.09172 7.54918 0.990159L7.42543 0.716872C7.16664 0.834059 6.80849 1.07372 6.35615 1.42554L6.54033 1.66235ZM5.66844 2.43921C5.80746 2.27069 6.09428 2.01282 6.54092 1.66189L6.35557 1.426C5.90897 1.77689 5.59879 2.05222 5.43703 2.24829L5.66844 2.43921ZM5.38969 2.97846C5.44325 2.78483 5.53607 2.6047 5.66986 2.43745L5.4356 2.25005C5.27773 2.44738 5.16548 2.66374 5.10055 2.89849L5.38969 2.97846ZM5.00925 4.78695C5.23799 3.6707 5.36415 3.0721 5.38983 2.97794L5.1004 2.89901C5.07139 3.00537 4.94235 3.61901 4.71536 4.72672L5.00925 4.78695ZM3.71072 5.43774C4.27301 5.23203 4.68711 5.04744 4.9433 4.88309L4.78131 4.63058C4.55443 4.77613 4.16645 4.95157 3.60764 5.15601L3.71072 5.43774ZM7.26224 11.0802L7.39213 10.5268L7.10006 10.4583L6.97018 11.0116L7.26224 11.0802ZM7.67676 11.0453C7.48666 11.0453 7.32816 11.0014 7.19566 10.9187L7.03676 11.1731C7.22327 11.2896 7.43847 11.3453 7.67676 11.3453V11.0453ZM8.35234 10.8381C8.144 10.977 7.91991 11.0453 7.67676 11.0453V11.3453C7.98048 11.3453 8.26225 11.2587 8.51875 11.0877L8.35234 10.8381ZM10.0787 8.93131C9.32619 9.94656 8.75207 10.5737 8.35279 10.8378L8.5183 11.088C8.96668 10.7914 9.56834 10.1237 10.3197 9.10996L10.0787 8.93131ZM10.793 10.6705C10.6363 10.4068 10.4844 9.85843 10.3474 8.99707L10.0511 9.0442C10.1875 9.90192 10.3454 10.5045 10.5351 10.8237L10.793 10.6705ZM11.3682 11.0342C11.1334 11.0342 10.9438 10.9242 10.793 10.6705L10.5351 10.8237C10.7307 11.1528 11.0105 11.3342 11.3682 11.3342V11.0342ZM11.8066 10.923C11.6564 10.9986 11.5107 11.0342 11.3682 11.0342V11.3342C11.5629 11.3342 11.7544 11.2851 11.9414 11.191L11.8066 10.923ZM13.1565 10.0251C12.594 10.4584 12.1452 10.7557 11.8076 10.9225L11.9405 11.1915C12.3047 11.0115 12.7719 10.7001 13.3396 10.2628L13.1565 10.0251ZM12.9731 10.0377L13.1303 10.2369L13.3658 10.051L13.2086 9.8518L12.9731 10.0377ZM12.4749 10.5134C12.6323 10.4436 12.8694 10.2909 13.179 10.0661L13.0027 9.82336C12.6925 10.0486 12.4784 10.1837 12.3532 10.2393L12.4749 10.5134ZM12.0176 10.6149C12.1688 10.6149 12.3211 10.5799 12.4735 10.5141L12.3546 10.2386C12.2336 10.2909 12.1216 10.3149 12.0176 10.3149V10.6149ZM11.5789 10.4521C11.7054 10.5592 11.8534 10.6149 12.0176 10.6149V10.3149C11.9266 10.3149 11.8467 10.2858 11.7727 10.2231L11.5789 10.4521ZM11.1087 9.58543C11.2335 9.98547 11.3849 10.2861 11.5783 10.4516L11.7733 10.2236C11.6476 10.1161 11.5165 9.88555 11.3952 9.49615L11.1087 9.58543ZM10.7632 8.07131C10.9179 8.8264 11.0331 9.33287 11.1083 9.58382L11.3956 9.49775C11.325 9.26175 11.2123 8.7685 11.0571 8.01109L10.7632 8.07131ZM11.7237 6.91905C11.5708 7.06213 11.2599 7.40638 10.7966 7.9432L11.0237 8.13921C11.4901 7.59883 11.7899 7.26799 11.9287 7.13808L11.7237 6.91905ZM12.3794 6.44931C12.172 6.54346 11.9533 6.70281 11.7233 6.91936L11.929 7.13777C12.1456 6.93377 12.3371 6.798 12.5034 6.72246L12.3794 6.44931ZM12.8721 6.34735C12.7014 6.34735 12.5376 6.38096 12.382 6.44817L12.5009 6.7236C12.6186 6.67276 12.7419 6.64735 12.8721 6.64735V6.34735ZM13.1847 6.4163C13.0948 6.36596 12.9866 6.34735 12.8721 6.34735V6.64735C12.958 6.64735 13.0093 6.66194 13.038 6.678L13.1847 6.4163ZM13.4332 6.66148C13.3593 6.5537 13.2763 6.4639 13.1806 6.41409L13.0421 6.68021C13.074 6.6968 13.1231 6.73981 13.1859 6.83123L13.4332 6.66148ZM13.4676 6.56552L13.283 6.59872L13.3361 6.89399L13.5207 6.86078L13.4676 6.56552ZM13.5609 5.71267C13.4824 6.01526 13.411 6.33965 13.3467 6.68573L13.6416 6.74058C13.7049 6.4005 13.7748 6.083 13.8513 5.78797L13.5609 5.71267ZM13.2822 5.80625C13.4006 5.80625 13.5213 5.8324 13.6452 5.88742L13.7669 5.61322C13.6083 5.54281 13.4464 5.50625 13.2822 5.50625V5.80625ZM12.8899 5.88546C13.0367 5.83116 13.167 5.80625 13.2822 5.80625V5.50625C13.124 5.50625 12.9581 5.54037 12.7858 5.60411L12.8899 5.88546ZM12.4059 6.17679C12.5894 6.02822 12.7496 5.93417 12.8871 5.8865L12.7887 5.60307C12.6071 5.66607 12.4164 5.7823 12.2171 5.94361L12.4059 6.17679ZM11.6946 6.87091C11.9165 6.60866 12.1533 6.37769 12.4049 6.1776L12.2182 5.9428C11.9502 6.15588 11.6994 6.40079 11.4656 6.67713L11.6946 6.87091ZM10.9305 7.80421L11.6961 6.86905L11.464 6.679L10.6984 7.61417L10.9305 7.80421ZM10.281 6.2452C10.3504 6.34547 10.4214 6.51546 10.4883 6.76814C10.5545 7.01806 10.6138 7.33776 10.6658 7.72893L10.9631 7.68945C10.9103 7.29116 10.8489 6.95791 10.7783 6.69137C10.7085 6.42759 10.6268 6.21761 10.5276 6.0744L10.281 6.2452ZM9.39258 5.81732C9.79677 5.81732 10.0849 5.96262 10.2811 6.24533L10.5275 6.07428C10.268 5.70033 9.88162 5.51732 9.39258 5.51732V5.81732ZM8.99731 5.86288C9.12167 5.83268 9.2533 5.81732 9.39258 5.81732V5.51732C9.23108 5.51732 9.07559 5.53515 8.92652 5.57136L8.99731 5.86288ZM8.65927 5.99184C8.76508 5.93255 8.87672 5.88984 8.9946 5.86351L8.92922 5.57072C8.78279 5.60342 8.64378 5.65663 8.51261 5.73014L8.65927 5.99184ZM7.87896 6.90548L8.69928 5.95925L8.4726 5.76273L7.65229 6.70897L7.87896 6.90548ZM8.07577 6.78779L7.82967 6.67159L7.70158 6.94286L7.94767 7.05907L8.07577 6.78779ZM8.09508 6.66297L7.91734 6.80684L8.1061 7.04002L8.28383 6.89615L8.09508 6.66297ZM8.59997 6.32433C8.46128 6.37822 8.29034 6.49751 8.0925 6.6651L8.28641 6.89401C8.4805 6.72959 8.61945 6.63861 8.70862 6.60396L8.59997 6.32433ZM9.03027 6.24221C8.87949 6.24221 8.735 6.26966 8.59802 6.3251L8.71057 6.60319C8.81058 6.56271 8.91673 6.54221 9.03027 6.54221V6.24221ZM9.5985 6.50315C9.45773 6.32747 9.2623 6.24221 9.03027 6.24221V6.54221C9.18106 6.54221 9.28642 6.59344 9.36439 6.69075L9.5985 6.50315ZM10.2512 8.61267C10.155 8.0691 10.054 7.62226 9.94793 7.27398C9.84309 6.92984 9.72886 6.66682 9.59878 6.5035L9.36411 6.6904C9.45734 6.80745 9.55844 7.02493 9.66095 7.36141C9.76221 7.69375 9.86066 8.12766 9.95581 8.66498L10.2512 8.61267ZM9.33702 9.82697C9.49867 9.65763 9.79534 9.28928 10.2227 8.72988L9.98432 8.54776C9.55492 9.10982 9.26826 9.46453 9.12002 9.61982L9.33702 9.82697ZM8.52919 10.4888C8.76314 10.3735 9.0331 10.1475 9.33737 9.8266L9.11966 9.62019C8.82237 9.93376 8.58192 10.1283 8.39659 10.2197L8.52919 10.4888ZM8.03906 10.5983C8.21857 10.5983 8.38381 10.5629 8.531 10.4879L8.39478 10.2206C8.29588 10.271 8.17857 10.2983 8.03906 10.2983V10.5983ZM7.64282 10.4879C7.77827 10.5569 7.91154 10.5983 8.03906 10.5983V10.2983C7.97518 10.2983 7.8897 10.277 7.77905 10.2206L7.64282 10.4879ZM7.41901 10.0993L7.57623 10.4202L7.84564 10.2882L7.68842 9.96728L7.41901 10.0993ZM7.30868 10.2204L7.57528 10.1817L7.53214 9.88483L7.26554 9.92356L7.30868 10.2204ZM7.39434 10.5154C7.41352 10.3912 7.42758 10.246 7.43687 10.0804L7.13735 10.0636C7.12841 10.2227 7.11513 10.3578 7.09785 10.4697L7.39434 10.5154Z" mask="url(#path-1-outside-1_37_103)"/>
</svg>
